<svg xmlns="http://www.w3.org/2000/svg" viewBox="0 0 64 64">
  <rect width="64" height="64" rx="14" fill="#dc3545"/>
  <path fill="#fff" d="M25.3 13.7a4 4 0 0 1 5.7 0l3.3 3.3-17.4 17.4-3.3-3.3a4 4 0 0 1 0-5.7l11.7-11.7Zm13.2 7.5 4.3 4.3-17.4 17.4-4.3-4.3 17.4-17.4Zm8.6 8.6 3.3 3.3a4 4 0 0 1 0 5.7L38.7 50.5a4 4 0 0 1-5.7 0l-3.3-3.3 17.4-17.4Z"/>
  <path fill="#fff" d="M12 48h28a4 4 0 0 1 4 4v2H8v-2a4 4 0 0 1 4-4Z" opacity=".92"/>
  <path fill="#fff" d="M39.4 12.8 51.2 24.6l-4.2 4.2L35.2 17l4.2-4.2Z" opacity=".9"/>
</svg>
